HIERARCHY
ROOT pelvis
{
	OFFSET 0.003123 -0.351407 0.012037
	CHANNELS 6 Xposition Yposition Zposition Zrotation Yrotation Xrotation 
	JOINT left_hip
	{
		OFFSET 0.058189 -0.092763 -0.026001
		CHANNELS 3 Zrotation Yrotation Xrotation
		JOINT left_knee
		{
			OFFSET 0.054695 -0.378753 -0.009396
			CHANNELS 3 Zrotation Yrotation Xrotation
			JOINT left_ankle
			{
				OFFSET -0.043453 -0.403059 -0.031876
				CHANNELS 3 Zrotation Yrotation Xrotation
				JOINT left_foot
				{
					OFFSET 0.047257 -0.057997 0.118216
					CHANNELS 3 Zrotation Yrotation Xrotation
					End Site
					{
						OFFSET 0.000000 0.000000 0.000000
					}
				}
			}
		}
	}
	JOINT right_hip
	{
		OFFSET -0.063267 -0.103908 -0.021250
		CHANNELS 3 Zrotation Yrotation Xrotation
		JOINT right_knee
		{
			OFFSET -0.044210 -0.362380 -0.016824
			CHANNELS 3 Zrotation Yrotation Xrotation
			JOINT right_ankle
			{
				OFFSET 0.015417 -0.410728 -0.020192
				CHANNELS 3 Zrotation Yrotation Xrotation
				JOINT right_foot
				{
					OFFSET -0.038812 -0.058328 0.119049
					CHANNELS 3 Zrotation Yrotation Xrotation
					End Site
					{
						OFFSET 0.000000 0.000000 0.000000
					}
				}
			}
		}
	}
	JOINT spine_1
	{
		OFFSET -0.002763 0.109891 -0.027618
		CHANNELS 3 Zrotation Yrotation Xrotation
		JOINT spine_2
		{
			OFFSET 0.009448 0.131853 -0.005940
			CHANNELS 3 Zrotation Yrotation Xrotation
			JOINT spine_3
			{
				OFFSET -0.011330 0.052235 0.028447
				CHANNELS 3 Zrotation Yrotation Xrotation
				JOINT neck
				{
					OFFSET -0.012164 0.165167 -0.031615
					CHANNELS 3 Zrotation Yrotation Xrotation
					JOINT head
					{
						OFFSET 0.024783 0.160452 0.020737
						CHANNELS 3 Zrotation Yrotation Xrotation
						End Site
						{
							OFFSET 0.000000 0.000000 0.000000
						}
					}
				}
				JOINT left_collar
				{
					OFFSET 0.046364 0.084944 -0.007220
					CHANNELS 3 Zrotation Yrotation Xrotation
					JOINT left_shoulder
					{
						OFFSET 0.119239 0.057728 -0.015461
						CHANNELS 3 Zrotation Yrotation Xrotation
						JOINT left_elbow
						{
							OFFSET 0.254123 -0.072151 -0.042459
							CHANNELS 3 Zrotation Yrotation Xrotation
							JOINT left_wrist
							{
								OFFSET 0.251987 0.023221 -0.002472
								CHANNELS 3 Zrotation Yrotation Xrotation
								JOINT left_index_1
								{
									OFFSET 0.101902 -0.008688 0.019351
									CHANNELS 3 Zrotation Yrotation Xrotation
									JOINT left_index_2
									{
										OFFSET 0.030149 -0.011154 0.001151
										CHANNELS 3 Zrotation Yrotation Xrotation
										JOINT left_index_3
										{
											OFFSET 0.006504 -0.021577 -0.002433
											CHANNELS 3 Zrotation Yrotation Xrotation
											End Site
											{
												OFFSET 0.000000 0.000000 0.000000
											}
										}
									}
								}
								JOINT left_middle_1
								{
									OFFSET 0.109398 -0.006328 -0.003981
									CHANNELS 3 Zrotation Yrotation Xrotation
									JOINT left_middle_2
									{
										OFFSET 0.026472 -0.015218 -0.004641
										CHANNELS 3 Zrotation Yrotation Xrotation
										JOINT left_middle_3
										{
											OFFSET 0.005022 -0.023347 -0.001911
											CHANNELS 3 Zrotation Yrotation Xrotation
											End Site
											{
												OFFSET 0.000000 0.000000 0.000000
											}
										}
									}
								}
								JOINT left_pinky_1
								{
									OFFSET 0.084047 -0.014539 -0.043750
									CHANNELS 3 Zrotation Yrotation Xrotation
									JOINT left_pinky_2
									{
										OFFSET 0.012124 -0.014448 -0.005375
										CHANNELS 3 Zrotation Yrotation Xrotation
										JOINT left_pinky_3
										{
											OFFSET 0.003798 -0.018853 0.000167
											CHANNELS 3 Zrotation Yrotation Xrotation
											End Site
											{
												OFFSET 0.000000 0.000000 0.000000
											}
										}
									}
								}
								JOINT left_ring_1
								{
									OFFSET 0.097444 -0.009268 -0.027345
									CHANNELS 3 Zrotation Yrotation Xrotation
									JOINT left_ring_2
									{
										OFFSET 0.023561 -0.016057 -0.001895
										CHANNELS 3 Zrotation Yrotation Xrotation
										JOINT left_ring_3
										{
											OFFSET 0.004257 -0.023548 0.000814
											CHANNELS 3 Zrotation Yrotation Xrotation
											End Site
											{
												OFFSET 0.000000 0.000000 0.000000
											}
										}
									}
								}
								JOINT left_thumb_1
								{
									OFFSET 0.040636 -0.017977 0.025611
									CHANNELS 3 Zrotation Yrotation Xrotation
									JOINT left_thumb_2
									{
										OFFSET 0.021637 -0.017639 0.011623
										CHANNELS 3 Zrotation Yrotation Xrotation
										JOINT left_thumb_3
										{
											OFFSET 0.024002 -0.008356 0.006548
											CHANNELS 3 Zrotation Yrotation Xrotation
											End Site
											{
												OFFSET 0.000000 0.000000 0.000000
											}
										}
									}
								}
							}
						}
					}
				}
				JOINT right_collar
				{
					OFFSET -0.047695 0.084339 -0.013400
					CHANNELS 3 Zrotation Yrotation Xrotation
					JOINT right_shoulder
					{
						OFFSET -0.102578 0.053524 -0.012669
						CHANNELS 3 Zrotation Yrotation Xrotation
						JOINT right_elbow
						{
							OFFSET -0.271150 -0.036492 -0.026467
							CHANNELS 3 Zrotation Yrotation Xrotation
							JOINT right_wrist
							{
								OFFSET -0.249267 -0.004533 -0.015325
								CHANNELS 3 Zrotation Yrotation Xrotation
								JOINT right_index_1
								{
									OFFSET -0.099881 -0.011783 0.019600
									CHANNELS 3 Zrotation Yrotation Xrotation
									JOINT right_index_2
									{
										OFFSET -0.030148 -0.011154 0.001151
										CHANNELS 3 Zrotation Yrotation Xrotation
										JOINT right_index_3
										{
											OFFSET -0.006505 -0.021577 -0.002432
											CHANNELS 3 Zrotation Yrotation Xrotation
											End Site
											{
												OFFSET 0.000000 0.000000 0.000000
											}
										}
									}
								}
								JOINT right_middle_1
								{
									OFFSET -0.107376 -0.009422 -0.003734
									CHANNELS 3 Zrotation Yrotation Xrotation
									JOINT right_middle_2
									{
										OFFSET -0.026472 -0.015218 -0.004641
										CHANNELS 3 Zrotation Yrotation Xrotation
										JOINT right_middle_3
										{
											OFFSET -0.005022 -0.023347 -0.001911
											CHANNELS 3 Zrotation Yrotation Xrotation
											End Site
											{
												OFFSET 0.000000 0.000000 0.000000
											}
										}
									}
								}
								JOINT right_pinky_1
								{
									OFFSET -0.082027 -0.017634 -0.043503
									CHANNELS 3 Zrotation Yrotation Xrotation
									JOINT right_pinky_2
									{
										OFFSET -0.012123 -0.014448 -0.005374
										CHANNELS 3 Zrotation Yrotation Xrotation
										JOINT right_pinky_3
										{
											OFFSET -0.003798 -0.018852 0.000167
											CHANNELS 3 Zrotation Yrotation Xrotation
											End Site
											{
												OFFSET 0.000000 0.000000 0.000000
											}
										}
									}
								}
								JOINT right_ring_1
								{
									OFFSET -0.095423 -0.012362 -0.027099
									CHANNELS 3 Zrotation Yrotation Xrotation
									JOINT right_ring_2
									{
										OFFSET -0.023561 -0.016057 -0.001895
										CHANNELS 3 Zrotation Yrotation Xrotation
										JOINT right_ring_3
										{
											OFFSET -0.004257 -0.023548 0.000816
											CHANNELS 3 Zrotation Yrotation Xrotation
											End Site
											{
												OFFSET 0.000000 0.000000 0.000000
											}
										}
									}
								}
								JOINT right_thumb_1
								{
									OFFSET -0.038613 -0.021074 0.025861
									CHANNELS 3 Zrotation Yrotation Xrotation
									JOINT right_thumb_2
									{
										OFFSET -0.021636 -0.017639 0.011623
										CHANNELS 3 Zrotation Yrotation Xrotation
										JOINT right_thumb_3
										{
											OFFSET -0.024004 -0.008353 0.006547
											CHANNELS 3 Zrotation Yrotation Xrotation
											End Site
											{
												OFFSET 0.000000 0.000000 0.000000
											}
										}
									}
								}
							}
						}
					}
				}
			}
		}
	}
}
MOTION
Frames: 4
Frame Time: 0.050000
0.000027 0.917570 0.000587 2.148635 -7.642357 -2.019254 6.971440 -1.662974 -25.707149 -4.582466 -1.149550 35.538327 -1.111148 -0.625444 2.158422 0.000000 0.000000 0.000000 -9.840484 1.679744 -20.864259 10.450608 -1.413989 36.400870 -8.436549 -11.564579 -10.441472 0.000000 0.000000 0.000000 0.184638 -1.853266 30.692089 -9.882277 -2.345271 -24.689311 8.108770 4.453708 26.695287 -2.321938 0.481155 -0.382394 0.000000 0.000000 0.000000 7.455165 2.324895 -0.350475 -43.297382 -29.273647 -4.931317 55.909070 -53.246288 -21.973664 14.213564 12.677353 -21.682414 6.482918 -1.206599 -0.401456 13.838736 -6.330378 -32.657262 0.000000 0.000000 0.000000 11.873005 -2.057622 0.848489 29.140775 -0.146304 0.197866 0.000000 0.000000 0.000000 22.085872 -3.625386 2.344139 19.387554 1.741577 17.417221 0.000000 0.000000 0.000000 9.765083 -0.451731 0.137030 27.555932 2.304097 2.712524 0.000000 0.000000 0.000000 24.037178 -4.402029 -16.751082 -26.750019 -0.188455 7.202725 0.000000 0.000000 0.000000 -8.946784 9.371018 4.751294 57.111772 48.182575 12.922439 -128.200447 56.220691 -90.933338 -12.659052 -11.218301 -42.756779 -17.261551 0.482917 1.786710 -21.079891 2.622147 -20.633547 0.000000 0.000000 0.000000 4.937919 9.086005 -4.562757 -11.602471 3.257335 -21.021917 0.000000 0.000000 0.000000 -6.285984 10.424970 -14.593625 -22.938191 -0.871915 10.963439 0.000000 0.000000 0.000000 12.138049 12.107713 -4.859073 -18.245548 0.434735 -14.007456 0.000000 0.000000 0.000000 -38.003300 -1.262343 -14.965315 20.005100 5.408459 3.940129 0.000000 0.000000 0.000000 
0.000027 0.917570 0.000587 0.930338 -7.824639 -1.999033 7.101311 -1.583999 -25.450993 -4.772799 -1.048599 36.028243 -0.976792 -0.544117 1.911437 0.000000 0.000000 0.000000 -9.818243 1.691931 -20.592507 10.497236 -1.398386 36.766328 -6.439619 -6.251357 -11.251197 0.000000 0.000000 0.000000 -0.171328 -1.817862 31.581660 -9.829537 -2.494748 -25.134005 8.467891 5.079720 27.242612 -2.291605 0.562488 -1.018258 0.000000 0.000000 0.000000 7.054889 1.702380 -0.101949 -42.792035 -29.823219 -5.067578 56.177400 -52.319890 -21.738718 14.299551 12.628800 -22.717522 5.030397 -0.394730 -0.139229 17.327935 -6.146624 -35.022348 0.000000 0.000000 0.000000 10.550374 -2.816047 0.065911 30.222571 -0.194310 1.202322 0.000000 0.000000 0.000000 20.612122 -4.149493 0.121403 19.915893 1.827762 19.032782 0.000000 0.000000 0.000000 9.831902 0.673609 1.138589 26.564807 2.307192 0.323968 0.000000 0.000000 0.000000 24.323865 -4.299806 -16.670696 -26.122178 -0.965980 6.880221 0.000000 0.000000 0.000000 -8.653601 9.175454 4.630981 57.588481 48.349058 13.382681 -128.873951 57.290877 -93.143489 -13.949859 -11.753252 -42.650852 -17.525873 0.444254 1.843891 -20.588276 2.826280 -20.789928 0.000000 0.000000 0.000000 4.089735 10.141995 -4.980605 -11.196937 2.946519 -19.947678 0.000000 0.000000 0.000000 -6.943662 11.024326 -15.470932 -22.885564 -0.957417 11.528825 0.000000 0.000000 0.000000 11.378907 12.609820 -5.266182 -18.801750 0.392079 -14.601888 0.000000 0.000000 0.000000 -38.159963 -1.319238 -14.949492 19.988388 5.648253 3.861191 0.000000 0.000000 0.000000 
0.000027 0.917570 0.000587 1.965902 -7.299957 -2.893524 6.810860 -1.727167 -25.808049 -4.479679 -1.271949 36.439487 -1.260408 -0.912573 2.146346 0.000000 0.000000 0.000000 -9.882031 1.615693 -20.475482 10.642946 -1.524485 36.519700 -8.254261 -11.990055 -8.874161 0.000000 0.000000 0.000000 0.193356 -1.910398 31.690288 -9.750954 -2.357484 -24.652247 8.175888 4.873451 26.896482 -2.555111 0.584411 -0.818649 0.000000 0.000000 0.000000 6.881684 1.223441 0.097828 -41.920233 -30.752449 -5.107419 55.691725 -51.519163 -21.165060 14.285547 12.658675 -22.145929 5.720766 -0.810526 -0.270853 15.578051 -6.343529 -34.145713 0.000000 0.000000 0.000000 11.207355 -1.791850 0.888142 31.026625 -0.283457 -0.601528 0.000000 0.000000 0.000000 20.778270 -4.163949 0.278313 19.135537 1.965216 18.755986 0.000000 0.000000 0.000000 9.332695 -0.230374 0.303924 27.755777 2.316518 2.772336 0.000000 0.000000 0.000000 23.814111 -4.395660 -16.514478 -25.690734 -0.932475 6.722705 0.000000 0.000000 0.000000 -8.419728 9.306828 4.677336 57.345399 49.508955 13.931486 -126.842812 58.905565 -92.845335 -13.237030 -12.095773 -42.636097 -17.201473 -0.008606 1.978407 -20.532709 3.068813 -21.978936 0.000000 0.000000 0.000000 5.000282 9.452906 -4.675825 -11.402781 3.136351 -20.861817 0.000000 0.000000 0.000000 -6.507745 10.424935 -14.599675 -23.651326 -0.668312 10.253640 0.000000 0.000000 0.000000 11.965927 11.689775 -4.659533 -17.391059 0.699216 -14.411926 0.000000 0.000000 0.000000 -37.628839 -0.588263 -15.215489 19.723791 4.588830 4.097135 0.000000 0.000000 0.000000 
0.000027 0.917570 0.000587 0.696281 -7.977435 -2.697357 6.875129 -1.634039 -25.902971 -4.604365 -1.129421 36.968793 -1.233472 -1.069682 1.875285 0.000000 0.000000 0.000000 -9.874981 1.719463 -21.038184 10.783934 -1.479943 37.245593 -5.831813 -6.514810 -8.693657 0.000000 0.000000 0.000000 -0.034318 -1.857266 31.900949 -10.015127 -1.972423 -23.376029 8.343572 4.516691 25.504199 -2.555309 0.561144 -0.725661 0.000000 0.000000 0.000000 6.348314 0.709186 0.225908 -41.944818 -30.219807 -4.925782 56.879680 -50.523763 -21.200721 13.525549 12.177128 -23.247326 6.370759 -0.371288 -0.137809 15.547278 -6.288716 -33.167911 0.000000 0.000000 0.000000 11.807487 -2.979169 0.189786 27.695385 0.072986 -0.390542 0.000000 0.000000 0.000000 20.412782 -4.091294 0.059712 20.246621 1.758657 19.055061 0.000000 0.000000 0.000000 8.582986 -0.322883 0.162855 29.606658 2.295000 2.905790 0.000000 0.000000 0.000000 24.588120 -4.232233 -16.736673 -26.920569 -1.470901 7.040961 0.000000 0.000000 0.000000 -8.513647 10.242762 5.149523 57.343748 50.071768 13.929857 -126.128317 60.838813 -94.807014 -12.606793 -12.049544 -41.469211 -16.999694 0.651633 1.641202 -20.372235 2.575273 -20.438051 0.000000 0.000000 0.000000 4.666132 9.138534 -4.604448 -10.601566 3.292782 -20.622390 0.000000 0.000000 0.000000 -7.187316 10.356698 -14.686080 -22.976540 -0.872122 10.914497 0.000000 0.000000 0.000000 10.998228 12.522444 -5.483806 -17.023038 0.461154 -13.298763 0.000000 0.000000 0.000000 -36.781106 -0.670385 -15.196269 19.620691 4.963046 3.923105 0.000000 0.000000 0.000000 
